<?xml version="1.0" standalone="no"?>
<!DOCTYPE svg PUBLIC "-//W3C//DTD SVG 20010904//EN"
 "http://www.w3.org/TR/2001/REC-SVG-20010904/DTD/svg10.dtd">
<svg version="1.0" xmlns="http://www.w3.org/2000/svg"
 width="512.000000pt" height="512.000000pt" viewBox="0 0 512.000000 512.000000"
 preserveAspectRatio="xMidYMid meet">

<g transform="translate(0.000000,512.000000) scale(0.100000,-0.100000)"
fill="#000000" stroke="none">
<path d="M2070 5106 c-88 -19 -178 -57 -253 -106 l-61 -41 -66 13 c-36 7 -126
13 -200 13 -165 0 -233 -16 -379 -87 -86 -42 -117 -64 -186 -132 -45 -45 -95
-105 -111 -134 -25 -45 -35 -54 -78 -68 -166 -56 -326 -215 -386 -386 -81
-232 -31 -471 137 -658 l53 -58 0 -1509 c0 -1657 -3 -1574 61 -1693 39 -73
125 -160 198 -198 121 -65 62 -62 1338 -62 1266 0 1212 -2 1333 58 67 33 169
131 200 192 60 119 63 134 68 437 l4 282 62 5 c33 3 124 10 201 16 164 12 231
27 342 81 208 99 368 293 435 526 22 74 23 94 23 428 0 335 -1 353 -23 429
-80 277 -278 484 -547 572 -73 25 -97 27 -287 31 l-207 5 -3 212 -3 211 57 62
c63 69 129 192 153 288 21 79 21 232 1 319 -69 297 -333 511 -641 521 -96 4
-101 5 -147 39 -96 72 -207 118 -326 134 -71 10 -74 12 -146 80 -128 119 -277
181 -451 188 -61 2 -125 -2 -165 -10z m286 -202 c81 -23 163 -78 240 -161 l71
-76 94 -8 c136 -11 213 -42 318 -129 l61 -52 113 1 c167 2 270 -35 369 -133
92 -90 138 -190 145 -317 9 -146 -33 -264 -131 -365 l-52 -54 -122 0 c-171 0
-212 -20 -212 -103 0 -42 36 -82 81 -91 18 -3 71 -6 119 -6 l88 0 4 -228 c3
-197 5 -232 20 -255 33 -49 47 -51 308 -58 213 -5 254 -8 310 -27 186 -61 336
-209 404 -402 l31 -85 0 -325 c0 -287 -2 -332 -18 -384 -73 -236 -256 -408
-479 -451 -40 -8 -170 -19 -289 -24 -128 -5 -226 -14 -239 -21 -46 -25 -50
-57 -50 -402 0 -317 -1 -324 -24 -373 -47 -101 -115 -155 -221 -175 -43 -8
-381 -10 -1195 -8 l-1135 3 -51 23 c-64 29 -126 92 -156 157 l-23 50 -3 1493
-2 1492 226 0 227 0 -7 -217 c-15 -466 33 -714 163 -857 61 -67 183 -94 285
-64 61 19 138 99 166 173 44 121 52 193 60 565 4 195 11 365 15 377 l7 22 450
3 450 3 29 33 c38 42 38 82 0 124 l-29 33 -457 3 c-316 2 -469 -1 -498 -9 -56
-15 -111 -74 -133 -142 -13 -42 -18 -119 -24 -407 -8 -353 -15 -429 -46 -522
-37 -113 -140 -100 -187 24 -47 125 -50 154 -54 573 -2 250 -8 410 -14 427
-22 54 -47 58 -385 58 l-307 0 -44 48 c-90 97 -131 231 -113 363 25 182 150
322 334 376 64 19 79 33 119 107 63 120 191 219 347 268 103 32 268 32 387 0
45 -12 89 -22 97 -22 8 0 44 22 79 49 157 121 311 154 483 105z"/>
<path d="M3653 2660 c-49 -11 -83 -38 -99 -76 -22 -51 -16 -1098 5 -1131 34
-50 96 -56 143 -14 l33 29 3 500 3 499 67 7 c226 21 330 -13 387 -127 25 -51
25 -51 25 -323 l0 -272 -35 -66 c-45 -85 -46 -125 -4 -160 48 -41 104 -31 148
26 37 46 70 131 81 203 12 86 13 445 1 537 -23 180 -157 327 -329 363 -72 16
-371 19 -429 5z"/>
</g>
</svg>
